<svg xmlns="http://www.w3.org/2000/svg" xmlns:xlink="http://www.w3.org/1999/xlink" width="1920" zoomAndPan="magnify" viewBox="0 0 1440 809.999993" height="1080" preserveAspectRatio="xMidYMid meet" version="1.0"><defs><clipPath id="9cafda1eeb"><path d="M 0 0 L 261 0 L 261 334 L 0 334 Z M 0 0 " clip-rule="nonzero"/></clipPath><clipPath id="ddd58a9e5d"><path d="M 336.785156 -161.390625 L 169.035156 384.933594 L -228.164062 262.972656 L -60.410156 -283.351562 Z M 336.785156 -161.390625 " clip-rule="nonzero"/></clipPath><clipPath id="562914edd9"><path d="M 336.785156 -161.390625 L 169.035156 384.933594 L -228.164062 262.972656 L -60.410156 -283.351562 Z M 336.785156 -161.390625 " clip-rule="nonzero"/></clipPath><clipPath id="a2f3615a5e"><path d="M 959 300.125 L 1440 300.125 L 1440 810 L 959 810 Z M 959 300.125 " clip-rule="nonzero"/></clipPath><clipPath id="fe56202880"><path d="M 0 466 L 273.089844 466 L 273.089844 810 L 0 810 Z M 0 466 " clip-rule="nonzero"/></clipPath><clipPath id="621222b1c9"><path d="M 0 369.46875 L 139 369.46875 L 139 810 L 0 810 Z M 0 369.46875 " clip-rule="nonzero"/></clipPath><clipPath id="5b2a91836f"><path d="M 1177 0 L 1440 0 L 1440 270.191406 L 1177 270.191406 Z M 1177 0 " clip-rule="nonzero"/></clipPath></defs><g clip-path="url(#9cafda1eeb)"><g clip-path="url(#ddd58a9e5d)"><g clip-path="url(#562914edd9)"><path fill="#58bfc6" d="M -133.078125 21.277344 C -125.183594 -3.691406 -114.175781 -30.445312 -107.253906 -56.351562 C -99.957031 -83.878906 -101.039062 -112.679688 -97.09375 -140.710938 C -89.164062 -189.808594 -44.53125 -223.203125 0.542969 -236.867188 C 32.695312 -247.238281 67.863281 -243.957031 98.730469 -230.460938 C 109.222656 -226.5 117.273438 -219.210938 125.585938 -212.3125 C 136.710938 -203.085938 147.425781 -193.335938 155.738281 -181.355469 C 181.394531 -142.46875 190.667969 -95.789062 208.570312 -53.296875 C 210.171875 -49.1875 212.882812 -45.847656 216.011719 -42.761719 C 234.492188 -25.542969 254.804688 -7.34375 258.402344 19.113281 C 267.773438 63.277344 246.539062 110.890625 207.914062 134.308594 C 198.121094 140.09375 187.484375 144.175781 177.820312 150.121094 C 148.824219 166.933594 115.171875 182.003906 98.210938 212.558594 C 84.605469 246.234375 104.785156 272.109375 81.71875 305.601562 C 61.261719 338.578125 15.808594 337.910156 -16.976562 326.121094 C -46.28125 314.210938 -71.234375 293.308594 -91.550781 269.371094 C -150.710938 193.738281 -162.769531 112.082031 -133.078125 21.277344 Z M -133.078125 21.277344 " fill-opacity="1" fill-rule="nonzero"/></g></g></g><g clip-path="url(#a2f3615a5e)"><path fill="#d8c65a" d="M 1488.757812 300.328125 C 1489.707031 301.714844 1489.539062 302.941406 1489.539062 304.128906 C 1489.542969 507.929688 1489.542969 711.726562 1489.539062 915.527344 C 1489.539062 921.089844 1489.523438 921.089844 1483.976562 921.089844 C 1310.195312 921.089844 1136.421875 921.089844 962.644531 921.070312 C 961.480469 921.070312 959.804688 921.664062 959.28125 920.679688 C 958.679688 919.5625 959.953125 918.324219 960.683594 917.308594 C 965.15625 911.082031 968.714844 904.277344 972.855469 897.84375 C 976.882812 891.578125 980.660156 885.117188 984.972656 879.050781 C 987.984375 874.8125 991 870.550781 994.566406 866.65625 C 999.089844 861.722656 1002.90625 856.152344 1007.085938 850.898438 C 1012.726562 843.8125 1019.515625 837.875 1026.308594 831.964844 C 1029.910156 828.828125 1033.476562 825.578125 1037.457031 822.972656 C 1043.433594 819.050781 1049.367188 815.03125 1055.558594 811.421875 C 1062.882812 807.152344 1070.46875 803.34375 1078.210938 800.039062 C 1085.882812 796.761719 1093.554688 793.449219 1101.410156 790.539062 C 1112.460938 786.449219 1123.074219 781.21875 1134.074219 776.984375 C 1140.507812 774.507812 1146.898438 771.832031 1153.441406 769.699219 C 1160.316406 767.457031 1166.65625 764.003906 1173.464844 761.765625 C 1179.976562 759.628906 1185.949219 756.257812 1192.347656 753.980469 C 1201.207031 750.824219 1209.699219 746.816406 1218.292969 743.097656 C 1226.882812 739.382812 1235.367188 735.328125 1243.699219 730.953125 C 1249.339844 727.992188 1254.746094 724.6875 1260.167969 721.433594 C 1266.132812 717.84375 1271.824219 713.773438 1277.308594 709.40625 C 1285.59375 702.808594 1293.5625 695.855469 1301.039062 688.382812 C 1306.585938 682.832031 1311.773438 676.914062 1316.828125 670.898438 C 1323.640625 662.777344 1329.394531 653.894531 1334.632812 644.757812 C 1339.8125 635.71875 1344.160156 626.203125 1347.632812 616.308594 C 1350.953125 606.84375 1354.015625 597.28125 1357.09375 587.746094 C 1358.964844 581.941406 1360.589844 575.960938 1361.992188 569.972656 C 1362.53125 567.65625 1363.515625 565.441406 1364.082031 563.125 C 1366.75 552.167969 1368.5625 541.019531 1371.632812 530.148438 C 1372.652344 526.542969 1372.976562 522.742188 1373.917969 519.113281 C 1375.390625 513.429688 1376.875 507.722656 1378.800781 502.179688 C 1381.039062 495.738281 1382.234375 489.019531 1384.546875 482.609375 C 1388.601562 471.375 1391.5625 459.785156 1395.671875 448.546875 C 1398.226562 441.566406 1401.320312 434.785156 1403.59375 427.726562 C 1406.421875 418.914062 1410.519531 410.660156 1414.308594 402.292969 C 1417.910156 394.34375 1421.84375 386.523438 1426.042969 378.828125 C 1431.980469 367.941406 1439.246094 357.996094 1446.542969 348.058594 C 1449.960938 343.40625 1453.882812 339.125 1457.289062 334.460938 C 1466.4375 321.9375 1477.675781 311.398438 1488.757812 300.328125 Z M 1488.757812 300.328125 " fill-opacity="1" fill-rule="nonzero"/></g><g clip-path="url(#fe56202880)"><path fill="#d34e53" d="M 273.089844 921.898438 L -73.410156 921.898438 L -73.410156 466.074219 C -38.316406 478.332031 4.609375 521.730469 22.816406 567.113281 C 46.984375 626.960938 16.417969 660.640625 44.664062 700.613281 C 78.433594 748.425781 137.027344 721.371094 195.625 764.105469 C 242.082031 798.003906 272.980469 864.148438 273.089844 921.898438 Z M 273.089844 921.898438 " fill-opacity="1" fill-rule="nonzero"/></g><path fill="#36376f" d="M 222 763.109375 C 217.585938 757.480469 223.324219 738.375 236.453125 737.160156 C 246.496094 736.167969 256.097656 746.328125 255.214844 753.0625 C 253.667969 763.222656 227.296875 770.066406 222 763.109375 Z M 222 763.109375 " fill-opacity="1" fill-rule="nonzero"/><path fill="#36376f" d="M 223.542969 794.359375 C 223.433594 789.28125 234.910156 780.445312 243.074219 785.417969 C 249.367188 789.171875 250.691406 799.21875 247.269531 802.753906 C 242.082031 807.941406 223.765625 800.65625 223.542969 794.359375 Z M 223.542969 794.359375 " fill-opacity="1" fill-rule="nonzero"/><path fill="#36376f" d="M 166.824219 774.042969 C 167.925781 772.496094 173.445312 772.496094 174.878906 775.808594 C 175.871094 778.460938 173.996094 781.773438 172.121094 781.992188 C 169.25 782.546875 165.390625 776.03125 166.824219 774.042969 Z M 166.824219 774.042969 " fill-opacity="1" fill-rule="nonzero"/><path fill="#36376f" d="M 191.433594 784.089844 C 191.320312 780.890625 198.492188 775.476562 203.570312 778.460938 C 207.433594 780.777344 208.316406 787.074219 206.109375 789.28125 C 202.90625 792.59375 191.542969 788.066406 191.433594 784.089844 Z M 191.433594 784.089844 " fill-opacity="1" fill-rule="nonzero"/><path fill="#36376f" d="M 141.664062 782.214844 C 141.554688 779.011719 148.726562 773.601562 153.800781 776.582031 C 157.664062 778.902344 158.546875 785.195312 156.339844 787.402344 C 153.140625 790.714844 141.773438 786.1875 141.664062 782.214844 Z M 141.664062 782.214844 " fill-opacity="1" fill-rule="nonzero"/><path fill="#36376f" d="M 162.851562 758.03125 C 162.742188 754.828125 169.914062 749.417969 174.988281 752.398438 C 178.851562 754.71875 179.734375 761.011719 177.527344 763.222656 C 174.328125 766.535156 162.960938 762.007812 162.851562 758.03125 Z M 162.851562 758.03125 " fill-opacity="1" fill-rule="nonzero"/><path fill="#36376f" d="M 200.699219 744.117188 C 203.238281 743.34375 206.878906 748.757812 204.011719 753.945312 C 201.804688 757.921875 196.839844 759.910156 195.292969 758.472656 C 192.976562 756.265625 197.609375 745.113281 200.699219 744.117188 Z M 200.699219 744.117188 " fill-opacity="1" fill-rule="nonzero"/><path fill="#36376f" d="M 214.273438 805.625 C 216.371094 808.054688 214.164062 816.777344 208.316406 817.660156 C 203.789062 818.320312 199.265625 814.015625 199.488281 810.921875 C 200.039062 806.285156 211.734375 802.640625 214.273438 805.625 Z M 214.273438 805.625 " fill-opacity="1" fill-rule="nonzero"/><path fill="#36376f" d="M 172.339844 800.542969 C 174.4375 802.199219 172.121094 808.382812 166.273438 809.046875 C 161.746094 809.597656 157.222656 806.617188 157.554688 804.410156 C 158.105469 801.207031 169.804688 798.554688 172.339844 800.542969 Z M 172.339844 800.542969 " fill-opacity="1" fill-rule="nonzero"/><g clip-path="url(#621222b1c9)"><path fill="#36376f" d="M 138.132812 921.898438 L 135.925781 921.898438 C 135.816406 905.554688 134.269531 889.542969 131.179688 873.976562 C 122.351562 829.585938 103.703125 799.328125 87.261719 772.605469 C 67.289062 740.253906 50.074219 712.316406 52.390625 667.816406 C 54.265625 632.039062 67.949219 610.507812 79.976562 591.515625 C 91.34375 573.628906 101.164062 558.167969 100.503906 534.316406 C 99.730469 506.710938 84.503906 478.996094 55.148438 451.941406 C 26.347656 425.21875 -16.800781 398.496094 -73.410156 372.21875 L -73.410156 369.789062 C -16.136719 396.289062 27.449219 423.34375 56.695312 450.394531 C 86.488281 477.890625 101.9375 506.160156 102.710938 534.425781 C 103.371094 558.941406 92.890625 575.394531 81.855469 592.839844 C 69.9375 611.613281 56.472656 632.8125 54.597656 668.039062 C 52.28125 711.765625 69.382812 739.480469 89.136719 771.503906 C 105.691406 798.335938 124.449219 828.703125 133.386719 873.53125 C 136.476562 889.210938 138.023438 905.335938 138.132812 921.898438 Z M 138.132812 921.898438 " fill-opacity="1" fill-rule="nonzero"/></g><g clip-path="url(#5b2a91836f)"><path fill="#d3814b" d="M 1557.507812 6.304688 C 1555.328125 -6.351562 1551.796875 -18.617188 1546.527344 -30.378906 C 1538.6875 -47.890625 1527.96875 -63.316406 1513.878906 -76.402344 C 1502.25 -87.207031 1489.140625 -95.683594 1474.625 -102.058594 C 1457.539062 -109.5625 1439.617188 -113.605469 1421.035156 -114.539062 C 1405.589844 -115.320312 1390.230469 -114.160156 1375.027344 -111.035156 C 1352.289062 -106.371094 1331.078125 -97.851562 1311.042969 -86.242188 C 1306.859375 -83.824219 1302.945312 -80.980469 1298.277344 -79.332031 C 1285.203125 -74.710938 1272.859375 -68.527344 1261.171875 -61.042969 C 1248.746094 -53.085938 1237.40625 -43.824219 1227.167969 -33.183594 C 1220.699219 -26.460938 1214.773438 -19.316406 1209.394531 -11.707031 C 1200.40625 1.023438 1193.246094 14.738281 1187.832031 29.367188 C 1181.609375 46.175781 1178.128906 63.535156 1177.292969 81.402344 C 1176.976562 87.929688 1177.070312 94.472656 1177.5 101.023438 C 1177.972656 108.230469 1178.789062 115.375 1180.175781 122.433594 C 1184.667969 145.324219 1193.3125 166.558594 1206.140625 186.046875 C 1215.582031 200.375 1226.832031 213.105469 1239.863281 224.289062 C 1251.699219 234.445312 1264.605469 242.945312 1278.539062 249.90625 C 1289.601562 255.433594 1301.097656 259.855469 1313.03125 263.125 C 1328.085938 267.242188 1343.398438 269.609375 1359.023438 270.023438 C 1364.410156 270.171875 1369.789062 270.023438 1375.164062 269.894531 C 1379.058594 269.804688 1382.96875 269.507812 1386.835938 269.035156 C 1396.65625 267.820312 1406.375 266.046875 1415.9375 263.457031 C 1428.792969 259.96875 1441.191406 255.269531 1453.042969 249.226562 C 1465.933594 242.644531 1477.9375 234.699219 1489.035156 225.378906 C 1498.582031 217.359375 1507.214844 208.492188 1514.949219 198.753906 C 1524.636719 186.546875 1532.519531 173.226562 1538.769531 158.941406 C 1543.667969 147.726562 1547.328125 136.089844 1549.832031 124.136719 C 1552.398438 111.917969 1553.582031 99.519531 1553.195312 87.003906 C 1553.132812 85.160156 1553.433594 83.386719 1553.871094 81.613281 C 1557.65625 66.332031 1560 50.863281 1559.679688 34.21875 C 1560.023438 25.398438 1559.140625 15.800781 1557.507812 6.304688 Z M 1546.578125 112.933594 C 1545.101562 123.414062 1542.816406 133.71875 1539.359375 143.746094 C 1534.273438 158.480469 1527.464844 172.355469 1518.644531 185.242188 C 1512.726562 193.886719 1506.144531 201.949219 1498.851562 209.484375 C 1487.527344 221.179688 1474.8125 231.082031 1460.804688 239.332031 C 1443.703125 249.402344 1425.4375 256.523438 1406.074219 260.800781 C 1398.582031 262.453125 1391.011719 263.574219 1383.371094 264.339844 C 1377.449219 264.929688 1371.539062 265.03125 1365.617188 265.136719 C 1341.601562 265.539062 1318.515625 260.914062 1296.183594 252.359375 C 1278.226562 245.488281 1261.773438 235.886719 1246.859375 223.777344 C 1231.046875 210.917969 1217.738281 195.804688 1207.113281 178.339844 C 1197.820312 163.054688 1191.035156 146.777344 1186.8125 129.425781 C 1184.496094 119.9375 1183.058594 110.304688 1182.398438 100.539062 C 1181.945312 93.988281 1181.863281 87.4375 1182.1875 80.921875 C 1182.867188 67.441406 1185.175781 54.195312 1189.050781 41.242188 C 1192.277344 30.488281 1196.488281 20.128906 1201.742188 10.214844 C 1207.816406 -1.257812 1215.042969 -11.941406 1223.503906 -21.820312 C 1235.042969 -35.296875 1248.242188 -46.820312 1263.125 -56.421875 C 1269.347656 -60.4375 1275.710938 -64.242188 1282.511719 -67.234375 C 1282.648438 -67.117188 1282.773438 -66.992188 1282.902344 -66.871094 C 1278.445312 -62.980469 1273.859375 -59.226562 1269.546875 -55.171875 C 1255.539062 -41.996094 1243.222656 -27.375 1232.828125 -11.183594 C 1223.242188 3.738281 1215.425781 19.527344 1209.585938 36.304688 C 1205.417969 48.296875 1202.355469 60.554688 1200.429688 73.082031 C 1199.453125 79.394531 1198.957031 85.769531 1198.574219 92.167969 C 1198.226562 98.109375 1198.375 104.019531 1198.679688 109.941406 C 1199.320312 122.5625 1201.40625 134.941406 1204.957031 147.074219 C 1209.316406 162.007812 1215.839844 175.949219 1224.679688 188.765625 C 1237.199219 206.894531 1253.15625 221.191406 1272.5 231.753906 C 1285.515625 238.851562 1299.304688 243.757812 1313.773438 246.710938 C 1322.941406 248.578125 1332.238281 249.507812 1341.625 249.78125 C 1369.847656 250.613281 1396.703125 244.800781 1422.574219 233.785156 C 1441.683594 225.652344 1459.265625 214.964844 1475.398438 201.9375 C 1488.660156 191.222656 1500.59375 179.179688 1511.296875 165.882812 C 1521.445312 153.277344 1530.109375 139.742188 1537.460938 125.351562 C 1540.957031 118.511719 1544.03125 111.464844 1546.726562 104.265625 C 1546.882812 103.84375 1547.050781 103.425781 1547.441406 102.433594 C 1547.6875 106.378906 1547.039062 109.667969 1546.578125 112.933594 Z M 1553.617188 55.460938 C 1553.199219 58.734375 1552.746094 62 1552.316406 65.261719 C 1552.074219 65.128906 1551.832031 65 1551.59375 64.875 C 1550.515625 56.792969 1548.746094 48.847656 1546.480469 41.023438 C 1543.289062 29.988281 1539.164062 19.300781 1533.757812 9.160156 C 1526.933594 -3.667969 1518.902344 -15.679688 1509.3125 -26.652344 C 1498.960938 -38.484375 1487.316406 -48.84375 1474.375 -57.710938 C 1461.023438 -66.847656 1446.710938 -74.160156 1431.464844 -79.667969 C 1419.652344 -83.933594 1407.542969 -87.015625 1395.15625 -88.957031 C 1389.246094 -89.878906 1383.28125 -90.414062 1377.300781 -90.8125 C 1371.425781 -91.214844 1365.570312 -91.183594 1359.710938 -91.105469 C 1347.902344 -90.933594 1336.246094 -89.378906 1324.691406 -87.050781 C 1324.269531 -87.109375 1323.78125 -86.957031 1323.496094 -87.4375 C 1342.261719 -97.089844 1361.964844 -103.859375 1382.796875 -107.421875 C 1395.277344 -109.558594 1407.835938 -110.3125 1420.433594 -109.644531 C 1439 -108.660156 1456.894531 -104.589844 1473.945312 -96.949219 C 1491.058594 -89.28125 1505.945312 -78.554688 1518.523438 -64.703125 C 1532.902344 -48.867188 1542.804688 -30.480469 1548.714844 -9.941406 C 1551.824219 0.824219 1553.761719 11.785156 1554.453125 22.988281 C 1555.125 33.847656 1554.980469 44.664062 1553.617188 55.460938 Z M 1553.617188 55.460938 " fill-opacity="1" fill-rule="nonzero"/></g></svg>