<svg id="visual" viewBox="0 0 900 600" width="900" height="600" xmlns="http://www.w3.org/2000/svg" xmlns:xlink="http://www.w3.org/1999/xlink" version="1.1"><rect x="0" y="0" width="900" height="600" fill="#0097b2"></rect><path d="M0 455L18.8 447C37.7 439 75.3 423 112.8 411.5C150.3 400 187.7 393 225.2 390.8C262.7 388.7 300.3 391.3 337.8 397.8C375.3 404.3 412.7 414.7 450.2 431.2C487.7 447.7 525.3 470.3 562.8 477C600.3 483.7 637.7 474.3 675.2 465.7C712.7 457 750.3 449 787.8 442.5C825.3 436 862.7 431 881.3 428.5L900 426L900 601L881.3 601C862.7 601 825.3 601 787.8 601C750.3 601 712.7 601 675.2 601C637.7 601 600.3 601 562.8 601C525.3 601 487.7 601 450.2 601C412.7 601 375.3 601 337.8 601C300.3 601 262.7 601 225.2 601C187.7 601 150.3 601 112.8 601C75.3 601 37.7 601 18.8 601L0 601Z" fill="#4facf7"></path><path d="M0 539L18.8 536.3C37.7 533.7 75.3 528.3 112.8 526.8C150.3 525.3 187.7 527.7 225.2 518.5C262.7 509.3 300.3 488.7 337.8 475.8C375.3 463 412.7 458 450.2 455.8C487.7 453.7 525.3 454.3 562.8 460.5C600.3 466.7 637.7 478.3 675.2 485.3C712.7 492.3 750.3 494.7 787.8 497.2C825.3 499.7 862.7 502.3 881.3 503.7L900 505L900 601L881.3 601C862.7 601 825.3 601 787.8 601C750.3 601 712.7 601 675.2 601C637.7 601 600.3 601 562.8 601C525.3 601 487.7 601 450.2 601C412.7 601 375.3 601 337.8 601C300.3 601 262.7 601 225.2 601C187.7 601 150.3 601 112.8 601C75.3 601 37.7 601 18.8 601L0 601Z" fill="#b4d4fc"></path><path d="M0 538L18.8 539.7C37.7 541.3 75.3 544.7 112.8 550.3C150.3 556 187.7 564 225.2 556.5C262.7 549 300.3 526 337.8 518C375.3 510 412.7 517 450.2 521.2C487.7 525.3 525.3 526.7 562.8 532.7C600.3 538.7 637.7 549.3 675.2 548C712.7 546.7 750.3 533.3 787.8 529.8C825.3 526.3 862.7 532.7 881.3 535.8L900 539L900 601L881.3 601C862.7 601 825.3 601 787.8 601C750.3 601 712.7 601 675.2 601C637.7 601 600.3 601 562.8 601C525.3 601 487.7 601 450.2 601C412.7 601 375.3 601 337.8 601C300.3 601 262.7 601 225.2 601C187.7 601 150.3 601 112.8 601C75.3 601 37.7 601 18.8 601L0 601Z" fill="#ffffff"></path></svg>