<?xml version="1.0" encoding="UTF-8"?><svg id="a" xmlns="http://www.w3.org/2000/svg" xmlns:xlink="http://www.w3.org/1999/xlink" viewBox="0 0 960 42" preserveAspectRatio="xMinYMin meet"><defs><clipPath id="b"><rect width="960" height="42" style="fill:none;"/></clipPath></defs><g style="clip-path:url(#b);"><path id="c" d="M985.5719,15.16832l-11.32106-.00049c-.0792,.48926-.30934,1.03955-.76634,1.67188,3.18409,2.26221,6.16146,9.79297-.53973,10.81543-8.99276-1.73486-12.06885-7.53711-21.11445-9.23828,2.09425,1.72949,3.70918,3.78613,7.62495,4.25781,.21355,2.11816-2.27168,2.72559-.99295,5.43506-3.80119,.5957-5.63198-.16406-7.40054-.96631l-.40782-.18506c-1.42981-.64697-2.91477-1.25537-5.46041-1.1333-1.72158-1.53076-3.67745-2.90137-5.66627-4.24951l-1.19551-.80713c-2.60482-1.75635-5.19719-3.521-7.32866-5.6001l-15.00315,.00098c-.87287,.65771-1.78027,1.29199-2.69671,1.91992l-.76536,.52246h0l-.79172,.53906-.78928,.54053c-1.31107,.90479-2.59628,1.82666-3.78044,2.81787-.61405-.1748-1.52597-.18604-2.49487-.16602l-.41807,.00977-.42075,.01172-.41941,.01074c-1.87753,.04395-3.58336-.00684-3.38958-1.09912-1.74818,.47852-3.05169,1.5127-4.30101,2.54395l-.35583,.29395c-2.18931,1.80664-4.32603,3.43799-8.54663,1.83936-.71753-2.40869,.93791-3.19287,2.70659-3.89893l.32228-.12793c.05381-.021,.10751-.04248,.1612-.06396l.36023-.14551c1.31071-.54053,2.48291-1.17578,2.56357-2.55908-3.35676-1.04297-8.97873,4.19482-10.47016,7.46826-2.39725-.11914-4.79071-.22852-7.18015-.34424,.69398-2.10547-2.53026-2.05225-1.21467-4.49268-.48994,.33008-.99343,.65088-1.49936,.97021l-.75963,.47852c-2.02348,1.27686-4.00229,2.58398-5.24661,4.39355-4.54117,.20117-5.55034-1.53076-8.53125-2.18994-1.73768,.06885-3.58922,.44336-5.45003,.83154l-1.19661,.24902c-3.32149,.68066-6.60162,1.2085-9.24585-.07227,1.70266-3.62256-2.72123-6.13428,.40831-7.95605-3.49746-.04346-5.85285,.69531-8.14698,1.47754l-.72363,.24756c-1.32767,.45312-2.67279,.89502-4.24512,1.18213-1.7505-.47217-2.89317-1.27246-2.73795-2.7876-1.74818,.47021-3.55005,.90381-5.36449,1.32861l-1.55733,.36279c-.2598,.06006-.51947,.12061-.77915,.18066l-1.55562,.36377c-5.17486,1.22021-10.21061,2.53564-14.14395,4.60791-4.53653,.19824-3.67501-2.56836-7.04922-3.00684,2.61043-1.79395,4.36752-4.17383,6.52376-6.28271l-13.66779,.00049h0l-.07041,.20996c-1.39344,3.94238-6.75708,7.76758-12.54489,8.13818-6.13534-1.23242-3.98484-5.80176-1.5749-8.34814h-2.36674c-1.11217,.94678-2.46924,2.05957-4.3281,1.72021-2.96712,.70947-5.75645,1.53809-8.72759,2.24463-1.7677,.53564-3.21545,1.29297-4.67039,2.04492l-.67311,.34619c-2.14099,1.08936-4.40498,2.09375-7.81348,2.30615-1.66093-1.24756-.48506-1.41992,.13448-2.66064-3.16481-.40186-5.24197-.05273-7.22298,.36328l-.6581,.14062c-1.53353,.32861-3.0756,.65186-5.09261,.64844-.97025-2.62695-3.31746-4.4917-9.83427-4.03223,.04344-.8916,.08603-1.77979,.13313-2.66455-4.84538-.21191-5.82844,2.23242-6.89375,4.62939l-.13972,.3125c-.14082,.31152-.28603,.62012-.44431,.91992-1.3273-.14062-2.81959-.18994-4.34128-.22168l-.61002-.01221-.61112-.01172h0l-.61051-.01172c-4.87565-.09863-9.49906-.3335-9.43512-3.1665-.25833,.09277-.52167,.18506-.78818,.2749l-.40196,.13232c-3.23119,1.03857-6.78368,1.56152-7.35941-1.71484-4.78437,2.5127-13.71319,2.16797-18.88439,4.4248-.14887-.00293-.29763-.00537-.44626-.0083l-.88995-.01465-.88556-.01123c-6.47379-.06934-12.45996,.2002-15.13897,2.74365-1.23792-.74854-3.18134-1.10889-5.68024-1.16064-1.51858-2.56592-1.40839-4.69238,.36596-7.10059-.25473-.20312-.55053-.35498-.88025-.46094h-3.12673c-3.08213,.62549-6.85434,2.64648-9.10546,4.27734-7.94741,1.55664-14.96685,3.75195-21.84181,6.05029-1.43011-.06396-2.85943-.13965-4.29131-.20752-.74785-1.88867-2.86102-3.01416-4.06818-4.64453-3.53461-.05078-6.90205-.20117-8.54351-1.30713-2.05899,1.33838-4.19973,2.61279-5.95834,4.16406-3.84585,.85254-8.33899-2.11035-8.58616-.41943-2.87883-1.75342,2.79598-5.3667,4.66094-6.89258-.11715-.375-.18017-.71289-.19817-1.02002l-14.77721,.00098c-2.13129,2.07861-4.72329,3.84326-7.32768,5.59912l-1.19563,.80713c-1.98882,1.34814-3.94463,2.71875-5.66627,4.24951-2.54557-.12207-4.03054,.48633-5.46034,1.1333l-.40788,.18506c-1.76856,.80225-3.59929,1.56201-7.40041,.96631,1.27867-2.70947-1.20662-3.31689-.99301-5.43506,2.87151-.34619,4.50578-1.54443,5.99904-2.84082l.60581-.53369c.33527-.29785,.67097-.59521,1.02004-.8833-4.18484,.78711-7.09199,2.45166-9.8984,4.18555l-.7002,.43457c-.1166,.07227-.23314,.14502-.34979,.21729,.06632,.2373,.12191,.48242,.16742,.73389-1.43981,.21582-2.03897,.89307-2.5601,1.6084l-.18194,.25342h0c-1.04383,.19336-1.94263,.2876-2.73563,.31006-1.43933,.62012-3.0249,1.14209-4.85582,1.49512-2.47712-.37793-3.63169-1.64502-3.94219-3.20703-.0615-.00439-.12526-.00684-.18982-.00879-.83864,1.78906-4.2339,2.16309-5.48432,3.72119-4.94386-2.44678-9.29356,.53271-13.24722-2.25244,.42692,1.9248-.9431,2.85449-4.11559,2.79541-7.24251-.48438-11.66799-3.13135-14.91858-4.8623-3.95055-2.09668-5.17754-2.91553-7.75613-5.96338-.33924-.3999-.73223-.79297-1.1284-1.18506l-.33924-.33545c-.39623-.39404-.78123-.78809-1.10356-1.18896l-6.14663-.00049-.13149,.15527c-2.41513,2.81396-3.68758,3.646-7.5106,5.67529-3.25053,1.73047-7.67601,4.37744-14.91852,4.86182-3.17249,.05908-4.54251-.87012-4.11553-2.79492-3.95372,2.78516-8.30336-.19434-13.24716,2.25244-1.25043-1.55811-4.64568-1.93213-5.48432-3.72119-1.66258,.05078-2.84015,.43164-4.00265,.82227l-.41044,.13818c-1.78241,.59473-3.65878,1.12549-7.3103,.4502l-.18194-.25342c-.52112-.71533-1.12022-1.39307-2.5601-1.6084,.44974-2.48486,1.88137-4.3042,3.52931-5.97705l-15.79829-.00049c2.15624,2.10889,3.91333,4.48877,6.52382,6.28271-3.37421,.43848-2.51269,3.20508-7.04922,3.00684-4.13005-2.17578-9.47551-3.51709-14.92109-4.79004l-1.55769-.3623c-2.33764-.54297-4.67418-1.08691-6.92176-1.69141,.15522,1.51514-.98745,2.31543-2.73795,2.7876-1.5724-.28711-2.91752-.729-4.24512-1.18213l-.72369-.24756c-2.29407-.78223-4.64953-1.521-8.14692-1.47754,3.12948,1.82178-1.29436,4.3335,.40831,7.95605-2.65839,1.2876-5.95938,.74707-9.29905,.06104l-.7711-.16016c-.25711-.05371-.51417-.10742-.77085-.16064l-.79538-.16162c-1.45519-.29004-2.89079-.53271-4.25623-.58691-1.08392,.23975-1.90712,.62109-2.73429,1l-.41514,.18848c-1.3234,.59229-2.76718,1.11719-5.38176,1.00146-1.24426-1.80957-3.22314-3.1167-5.24667-4.39355l-.75957-.47852c-.50599-.31934-1.00936-.64014-1.49936-.97021,.63784,1.18311,.20849,1.78027-.32405,2.32129l-.20263,.20117c-.50935,.50195-1.00344,1.01318-.688,1.97021-2.3895,.11572-4.7829,.2251-7.18015,.34424-1.49143-3.27344-7.11334-8.51123-10.47016-7.46826,.08432,1.44629,1.36172,2.07471,2.74314,2.63232l.362,.14404c1.87509,.74268,3.76702,1.47314,3.00873,4.01904-4.67692,1.77148-6.79497-.42334-9.26116-2.42773l-.36377-.2915c-1.03956-.81885-2.16332-1.5708-3.57854-1.95801,.33729,1.90137-5.08126,.646-7.14275,1.23291-1.4209-1.18945-2.98738-2.2793-4.5696-3.3584l-.79178-.53906c-1.17526-.80029-2.34722-1.60254-3.46286-2.44336h-18.19798c-.018,.30713-.08109,.64502-.19824,1.02002,1.86502,1.52588,7.53983,5.13916,4.661,6.89258-.24723-1.69092-4.74032,1.27197-8.58616,.41943-1.75867-1.55127-3.89936-2.82568-5.95834-4.16406-1.64153,1.10596-5.0089,1.25635-8.54358,1.30713-1.20711,1.63037-3.32027,2.75586-4.06812,4.64453-1.43188,.06787-2.8612,.14355-4.29131,.20752-6.87496-2.29834-13.8944-4.49365-21.84181-6.05029-2.25112-1.63086-6.02338-3.65186-9.10546-4.27734h-3.12673c-.32972,.10596-.62558,.25781-.88025,.46094,1.77429,2.4082,1.88455,4.53467,.36596,7.10059-2.4989,.05176-4.44232,.41211-5.68024,1.16064-2.8008-2.65918-9.2162-2.83301-16.02453-2.73242l-.89001,.01465c-.14857,.00293-.29732,.00537-.44614,.0083-5.17132-2.25684-14.10008-1.91211-18.88439-4.4248-.57573,3.27637-4.12834,2.75342-7.35941,1.71484l-.40202-.13232c-.26651-.08984-.52988-.18213-.78815-.2749,.06394,2.83301-4.55947,3.06787-9.43521,3.1665l-.61048,.01172-.61115,.01172h0l-.60996,.01221c-1.52172,.03174-3.01395,.08105-4.34134,.22168-.15824-.2998-.30342-.6084-.44427-.91992l-.13975-.3125c-1.06528-2.39697-2.04825-4.84131-6.89366-4.62939,.04701,.88477,.08963,1.77295,.13313,2.66455-6.5169-.45947-8.86402,1.40527-9.8343,4.03223-2.01698,.00342-3.55905-.31982-5.09264-.64844l-.65813-.14062c-1.98092-.41602-4.05809-.76514-7.22292-.36328,.61948,1.24072,1.79543,1.41309,.13448,2.66064-3.40853-.2124-5.67246-1.2168-7.81345-2.30615l-.6732-.34619c-1.45491-.75195-2.90263-1.50928-4.67036-2.04492-2.97109-.70654-5.76047-1.53516-8.72753-2.24463-1.85892,.33936-3.21597-.77344-4.32813-1.72021h-2.36677c2.40997,2.54639,4.56042,7.11572-1.57481,8.34814-5.78784-.37061-11.15148-4.1958-12.54492-8.13818l-.07041-.20996h0l-11.32106-.00049c-.07917,.48926-.30934,1.03955-.76634,1.67188,3.18409,2.26221,6.1614,9.79297-.53973,10.81543-8.99282-1.73486-12.06888-7.53711-21.11442-9.23828,2.09419,1.72949,3.70918,3.78613,7.62485,4.25781,.21364,2.11816-2.27162,2.72559-.99295,5.43506-3.80115,.5957-5.63192-.16406-7.40044-.96631l-.40788-.18506c-1.42984-.64697-2.9148-1.25537-5.46034-1.1333-4.31486-3.83643-10.10047-6.66748-14.18992-10.65625L0,15.16832c-1.11564,.84082-2.28761,1.64307-3.46283,2.44336l-1.18694,.80908c-1.4471,.99121-2.87194,1.99805-4.17447,3.08838-.70175-.19971-1.7926-.18604-2.91294-.15625l-.42081,.01172c-2.03385,.05615-4.01705,.08496-3.80893-1.08838-1.74827,.47852-3.05175,1.5127-4.30107,2.54395l-.35583,.29395c-2.18928,1.80664-4.32597,3.43799-8.5466,1.83936-.73382-2.46387,1.0143-3.22754,2.82731-3.94678l.54342-.21631c1.38139-.55762,2.65885-1.18604,2.74317-2.63232-3.35685-1.04297-8.97876,4.19482-10.47022,7.46826-2.39722-.11914-4.79065-.22852-7.18009-.34424,.69398-2.10547-2.53032-2.05225-1.2147-4.49268-.49001,.33008-.9934,.65088-1.49936,.97021l-.7596,.47852c-2.02354,1.27686-4.00235,2.58398-5.24661,4.39355-4.54117,.20117-5.55043-1.53076-8.53125-2.18994-1.36541,.0542-2.80101,.29688-4.2562,.58691l-.79538,.16162c-3.85073,.79736-7.77361,1.74561-10.841,.25977,1.70269-3.62256-2.7212-6.13428,.40831-7.95605-3.17942-.03955-5.41513,.56738-7.51893,1.26562l-.62802,.21191h0l-.72366,.24756c-1.32761,.45312-2.67276,.89502-4.24512,1.18213-1.75053-.47217-2.89317-1.27246-2.73795-2.7876-7.9915,2.1499-17.10712,3.52832-23.40055,6.84375-4.53653,.19824-3.67499-2.56836-7.04917-3.00684,2.61068-1.79395,4.36785-4.17383,6.52431-6.2832l-13.66836,.00098h0l-.07043,.20996c-1.39344,3.94238-6.75709,7.76758-12.5449,8.13818-6.13524-1.23242-3.98481-5.80176-1.57482-8.34814h-2.36677c-1.11218,.94678-2.46921,2.05957-4.32812,1.72021-2.96708,.70947-5.75646,1.53809-8.72753,2.24463-4.62334,1.40088-7.05753,4.31689-13.15704,4.69727-1.66094-1.24756-.48499-1.41992,.13449-2.66064-3.51651-.44629-5.69017,.03418-7.88104,.50391l-.65915,.13965c-1.32474,.27441-2.70465,.51172-4.43351,.50879-.97028-2.62695-3.31742-4.4917-9.83429-4.03223,.04349-.8916,.08611-1.77979,.13312-2.66455-4.42406-.19336-5.62823,1.82764-6.61504,4.00488l-.13981,.31201c-.04634,.104-.0925,.2085-.13881,.3125l-.13975,.3125c-.14085,.31152-.28602,.62012-.44427,.91992-1.59287-.16895-3.42311-.20557-5.25685-.23975l-.61106-.01172c-4.9861-.0957-9.80552-.28076-9.74023-3.17236-.32284,.11621-.65363,.23145-.98866,.34131l-.40382,.12988c-3.1755,.99463-6.59336,1.4292-7.15707-1.77881-4.78435,2.5127-13.71313,2.16797-18.8844,4.4248l-.44617-.0083h0l-.89001-.01465c-6.8083-.10059-13.22374,.07324-16.02451,2.73242-1.23791-.74854-3.18134-1.10889-5.68025-1.16064-1.51857-2.56592-1.40835-4.69238,.36596-7.10059-.25475-.20312-.55065-.35498-.88047-.46094h-3.12648c-3.08211,.62549-6.85435,2.64648-9.10546,4.27734-7.94741,1.55664-14.96685,3.75195-21.84182,6.05029-1.4301-.06396-2.85944-.13965-4.29129-.20752-.74788-1.88867-2.86104-3.01416-4.06816-4.64453-3.53467-.05078-6.90205-.20117-8.54356-1.30713l-.61968,.3999h0l-1.24294,.79639c-1.44639,.93164-2.86466,1.88184-4.09571,2.96777-3.84586,.85254-8.33896-2.11035-8.58617-.41943-2.87884-1.75342,2.796-5.3667,4.66098-6.89258-.11719-.37549-.18028-.71338-.19822-1.02002h-14.7763c-2.13149,2.0791-4.72385,3.84375-7.3286,5.6001l-1.19562,.80713c-1.98879,1.34814-3.9446,2.71875-5.66627,4.24951-2.66676-.12793-4.16954,.5459-5.66432,1.22607l-.40834,.18457c-1.70783,.7666-3.54105,1.44678-7.19599,.87402,1.27867-2.70947-1.20658-3.31689-.99296-5.43506,3.9157-.47168,5.53066-2.52832,7.62486-4.25781-4.17486,.78516-7.07812,2.44385-9.87838,4.17334l-1.39696,.8667c-2.79839,1.73047-5.68855,3.39746-9.83909,4.19824-6.70111-1.02246-3.72381-8.55322-.53973-10.81543-2.4491-3.38721,1.61537-4.43066,.5357-6.28662,2.84425-1.04932,5.31639,.77393,7.74824,2.69043l.45558,.35986c1.4417,1.13818,2.87651,2.24854,4.37389,2.74854,2.6819-3.86279,10.08995-4.47021,13.7269-7.67236,1.65813-.05811,3.15179-.02393,4.50751,.08691l-.00109-3137.06055H1446.41429l-.00061,3136.52344c.53815,.08545,1.13987,.12793,1.83226,.10889,.55499,7.10693,8.83059,8.98291,10.0372,15.6499-1.35513,.20312-1.96563,.81494-2.46717,1.48291l-.18426,.25195c-.03026,.04248-.0604,.08496-.09067,.12695-3.79191,.70166-5.66956,.10205-7.51561-.51904l-.4105-.1377c-1.09728-.36572-2.23251-.70605-3.79728-.75391-.83858,1.78906-4.2339,2.16309-5.48432,3.72119-4.94386-2.44678-9.29356,.53271-13.24728-2.25244,.42698,1.9248-.94304,2.85449-4.11553,2.79541-7.24251-.48438-11.66799-3.13135-14.91858-4.8623-3.95055-2.09668-5.17754-2.91553-7.75613-5.96338-.24235-.28564-.51203-.56787-.79074-.84863l-.33765-.33643-.33924-.33545c-.39623-.39404-.78123-.78809-1.10362-1.18896l-6.14682-.00049-.13118,.15527c-2.41519,2.81396-3.68758,3.646-7.51073,5.67529-3.25047,1.73047-7.67595,4.37744-14.91846,4.86182-3.17249,.05908-4.54251-.87012-4.11553-2.79492-3.95372,2.78516-8.30342-.19434-13.24716,2.25244-1.25043-1.55811-4.64574-1.93213-5.48432-3.72119-1.66264,.05078-2.84021,.43164-4.00265,.82227l-.41038,.13818c-1.78247,.59473-3.6589,1.12549-7.31036,.4502l-.18194-.25342c-.52106-.71533-1.12022-1.39307-2.56016-1.6084,.4498-2.48486,1.88143-4.3042,3.52943-5.97705l-15.79841-.00049c2.15624,2.10889,3.91333,4.48877,6.52388,6.28271-1.43408,.18652-2.10304,.79346-2.74649,1.41455l-.22722,.21875c-.80002,.76465-1.69388,1.47754-4.07551,1.37354-4.13005-2.17578-9.47551-3.51709-14.92115-4.79004l-2.33672-.54346c-2.07668-.4834-4.14482-.97266-6.14267-1.51025,.15522,1.51514-.98745,2.31543-2.73795,2.7876-1.57234-.28711-2.91758-.729-4.24512-1.18213l-.72363-.24756c-2.29413-.78223-4.64965-1.521-8.14698-1.47754,3.12954,1.82178-1.29436,4.3335,.40831,7.95605-2.64436,1.28076-5.92436,.75293-9.24597,.07227l-1.59503-.33203c-1.72621-.35742-3.43791-.68457-5.05161-.74854-2.98079,.65918-3.99009,2.39111-8.53125,2.18994-1.71084-2.48779-4.81048-4.02637-7.5056-5.84229,1.31571,2.44043-1.90865,2.38721-1.21467,4.49268-2.38944,.11572-4.7829,.2251-7.18003,.34424-1.49155-3.27344-7.1134-8.51123-10.47028-7.46826,.08432,1.44629,1.36184,2.07471,2.7432,2.63232l.36194,.14404c1.87521,.74268,3.76702,1.47314,3.00873,4.01904-4.01962,1.52246-6.14901,.11523-8.23387-1.58301l-.31264-.25635h0l-.35583-.29395c-1.24933-1.03125-2.55283-2.06543-4.30114-2.54395,.33729,1.90137-5.08126,.646-7.14269,1.23291-1.4209-1.18945-2.98738-2.2793-4.5696-3.3584l-.79184-.53906-.76536-.52246c-.91668-.62842-1.82432-1.2627-2.69744-1.9209h-18.19798c-.01794,.30664-.08103,.64453-.19817,1.02002,1.86496,1.52588,7.53977,5.13916,4.66088,6.89258-.24711-1.69092-4.74019,1.27197-8.58616,.41943-1.23102-1.08594-2.64924-2.03613-4.09564-2.96777l-1.24298-.79639c-.20708-.13281-.4138-.26611-.61966-.3999-1.64153,1.10596-5.0089,1.25635-8.54358,1.30713-1.20711,1.63037-3.32027,2.75586-4.06818,4.64453-1.43188,.06787-2.8612,.14355-4.29125,.20752-6.87496-2.29834-13.8944-4.49365-21.84187-6.05029-2.25106-1.63086-6.02332-3.65186-9.10539-4.27734h-3.12649c-.32984,.10596-.62576,.25781-.88056,.46094,1.77442,2.4082,1.88461,4.53467,.36596,7.10059-2.4989,.05176-4.44232,.41211-5.68018,1.16064-2.8008-2.65918-9.2162-2.83301-16.02453-2.73242l-.88995,.01465-.44626,.0083h0c-5.1712-2.25684-14.10002-1.91211-18.88439-4.4248-.56365,3.20801-3.98154,2.77344-7.15709,1.77881l-.40379-.12988c-.33509-.10986-.66579-.2251-.98867-.34131,.06529,2.8916-4.75411,3.07666-9.74019,3.17236l-.61112,.01172c-1.83372,.03418-3.6639,.0708-5.25686,.23975-.15815-.2998-.30336-.6084-.44418-.91992l-.13984-.3125c-.04625-.104-.09238-.2085-.13875-.3125l-.13984-.31201c-.98684-2.17725-2.19102-4.19824-6.61504-4.00488,.04698,.88477,.08969,1.77295,.13313,2.66455-6.51693-.45947-8.86402,1.40527-9.83427,4.03223-1.7289,.00293-3.1088-.23438-4.43354-.50879l-.65908-.13965c-2.1909-.46973-4.36459-.9502-7.88108-.50391,.61942,1.24072,1.7954,1.41309,.13448,2.66064-6.09947-.38037-8.53369-3.29639-13.15698-4.69727-2.97115-.70654-5.76047-1.53516-8.72759-2.24463-1.85886,.33936-3.21594-.77344-4.3281-1.72021h-2.36674c2.40994,2.54639,4.56032,7.11572-1.5749,8.34814-5.78781-.37061-11.15144-4.1958-12.54489-8.13818l-.07041-.20996h0Zm169.63646,.00049l-6.81761-.00146c.01904,.05371,.04173,.10889,.06858,.16699,.62027,3.56201,7.84435,6.98047,11.63382,2.99658-2.40384-.52148-3.94469-1.63477-4.8848-3.16211Zm-916.00081,0l-6.81748-.00146c.01898,.05371,.04173,.10889,.06852,.16699,.62027,3.56201,7.84435,6.98047,11.63382,2.99658-2.40378-.52148-3.94463-1.63477-4.88486-3.16211Zm-528.91655-.00146l-6.81751,.00146c-.94019,1.52734-2.48104,2.64062-4.88486,3.16211,3.78948,3.98389,11.01355,.56543,11.63385-2.99658,.02679-.05811,.04956-.11328,.06852-.16699Zm916.00075,0l-6.81754,.00146c-.94017,1.52734-2.48102,2.64062-4.88486,3.16211,3.78953,3.98389,11.01355,.56543,11.63388-2.99658,.02679-.05811,.04954-.11328,.06852-.16699Zm614.6772,.00049l-3.79399,.00098c-.41685,.80811,.92351,1.33545,2.44191,1.86572l.30422,.10596c.15278,.05273,.30629,.10596,.45907,.15967l.30385,.10791c1.30778,.47217,2.47498,.99512,2.48682,1.75195,2.72087-1.28027,.16144-2.85645-2.20188-3.99219Zm-357.92972,.00098l-3.79435-.00098-.27103,.13232c-.1036,.05078-.2072,.10254-.31032,.15527l-.30739,.15967c-2.03385,1.07959-3.6916,2.42529-1.31254,3.54492,.01171-.75684,1.17892-1.27979,2.48682-1.75195l.30385-.10791c.05089-.01807,.10189-.03564,.1529-.05371l.4587-.15918c1.57917-.54834,3.02447-1.0835,2.59335-1.91846ZM-32.96145,15.16881l-3.79511-.00098-.10244,.05029c-2.33324,1.13135-4.77924,2.68018-2.09816,3.94189,.01226-.78613,1.27044-1.31982,2.63832-1.80615l.30532-.10742,.45867-.15918c1.5792-.54834,3.02444-1.0835,2.59341-1.91846Zm357.92972-.00098l-3.79399,.00098c-.41691,.80811,.92351,1.33545,2.44179,1.86572l.30422,.10596,.30617,.10596,.30532,.10742c1.36788,.48633,2.62605,1.02002,2.63832,1.80615,2.72087-1.28027,.16138-2.85645-2.20182-3.99219Zm-379.05565,.00098h-4.55889c-.08408,1.20996-.94014,1.89355-1.84318,2.54492l-.26804,.19189h0l-.2666,.19336c-.35269,.25977-.69038,.5293-.96851,.83984,4.62234,.10303,6.59786-1.60498,7.90521-3.77002Zm400.94657,.00049l-4.55886-.00049c1.30735,2.16504,3.28287,3.87305,7.90518,3.77002-.31288-.34912-.70118-.64697-1.10137-.93652l-.26785-.19238c-.95054-.68115-1.88869-1.37109-1.9771-2.64062Zm916.00081,0l-4.55898-.00049c1.30741,2.16504,3.28293,3.87305,7.90524,3.77002-.31288-.34912-.70118-.64697-1.10143-.93652l-.26785-.19238c-.95048-.68115-1.88863-1.37109-1.97698-2.64062Zm-400.94669-.00049l-4.55886,.00049c-.07676,1.10254-.79416,1.76758-1.60419,2.36963l-.24784,.18115c-.04161,.02979-.08335,.05957-.12508,.08984l-.26785,.19238c-.40013,.28955-.78843,.5874-1.10131,.93652,4.62231,.10303,6.59783-1.60498,7.90512-3.77002Zm-316.32303-.00146l-3.34754,.00146c.74968,.50342,1.50644,.9248,2.27986,1.18311,.30056-.43311,.66042-.8252,1.06769-1.18457Zm-498.9395,.00098h-3.34724c.40693,.35889,.76652,.75098,1.06683,1.18359,.77366-.2583,1.5306-.67969,2.28041-1.18359Zm916.00029,.00049l-3.34675-.00049c.40684,.35889,.76646,.75098,1.06677,1.18359,.77354-.2583,1.53036-.67969,2.27998-1.18311Zm-777.39129-.00049l-10.24654-.00098c.02081,.09131,.03514,.1875,.04259,.28809,4.62323-.73975,6.69057,.27979,10.06741,.40039,.1036-.22998,.14405-.45947,.13655-.6875Zm-417.59193-.00098l-10.24655,.00098c-.00751,.22803,.03296,.45752,.13657,.6875,.93154-.0332,1.76343-.13477,2.57681-.24902l.60784-.0874c1.92185-.27832,3.85374-.54883,6.88273-.06396,.00744-.10059,.02181-.19678,.0426-.28809Zm916.00076,0l-10.2466,.00098c-.00744,.22803,.03295,.45752,.13655,.6875,3.37689-.12061,5.44418-1.14014,10.06747-.40039,.00744-.10059,.02172-.19678,.04259-.28809Zm417.59198,.00098l-10.2466-.00098c.02074,.09131,.03514,.1875,.04259,.28809,3.02899-.48486,4.96094-.21436,6.88277,.06396l.60782,.0874c.81332,.11426,1.64531,.21582,2.57675,.24902,.1036-.22998,.14412-.45947,.13667-.6875Zm-283.52363,.00049h-1.24335c.07602,.06299,.15644,.12402,.24101,.18311,.37133-.04639,.70398-.10791,1.00234-.18311Zm485.98378,0h-1.24323c.29824,.0752,.63101,.13672,1.00234,.18311,.08457-.05908,.16486-.12012,.24088-.18311Zm-916.00014-.00049l-1.24463,.00049c.29854,.0752,.6315,.13672,1.00313,.18311,.08481-.05957,.16529-.12061,.24149-.18359Zm-485.98365,.00049l-1.24463-.00049c.07624,.06299,.15675,.12402,.24151,.18359,.37165-.04639,.70461-.10791,1.00312-.18311Z" style="fill:#cce1eb; fill-rule:evenodd;"/></g></svg>