<?xml version="1.0" encoding="utf-8"?>
<!-- Generator: Adobe Illustrator 27.3.1, SVG Export Plug-In . SVG Version: 6.00 Build 0)  -->
<svg version="1.1" id="Layer_1" xmlns="http://www.w3.org/2000/svg" xmlns:xlink="http://www.w3.org/1999/xlink" x="0px" y="0px"
	 viewBox="0 0 373 149.9" style="enable-background:new 0 0 373 149.9;" xml:space="preserve">
<style type="text/css">
	.st0{fill:#22518A;}
	.st1{fill:#BC251C;}
	.st2{fill:#8DA6C3;}
	.st3{fill:#23528B;}
	.st4{fill:#BB241B;}
	.st5{fill:#BB231A;}
	.st6{fill:#BC251D;}
	.st7{fill:#23528A;}
	.st8{fill:#24528B;}
</style>
<g id="Icon_xA0">
	<g>
		<path class="st0" d="M65.3,120.2c0.7,2.1,1.4,4.4,3.5,5.5c1.2,0.6,2.7,1,4.1,1.2c4.6,0.5,9.3,0.5,13.8-0.9c0.4-0.1,1,0.2,1.4,0.2
			c-0.2,0.5-0.4,1-0.6,1.4c0.2,0.5,0.4,0.9,0.4,1.4c0.1,3.4-2.3,6.4-5.6,7.7c-2.4,0.9-4.9,1.4-7.5,1.1c0.4,2,1.1,2.7,3.3,3.1
			c1.4,0.3,3.3-0.6,4-1.8c0.6-1.1,1.7-1.4,3-0.8c-0.1,2.1-2.2,3.7-4.6,4c-0.2,0-0.4,0.2-0.6,0.2c-0.8,0-1.6,0-2.4,0
			c-0.4,0-0.8,0-1.2,0c-0.2,0-0.5,0-0.7,0c-0.4-0.2-0.9-0.3-1.3-0.5c-1.3-0.4-2.2-1.2-2.4-2.5c-0.1-0.4,0.2-0.9,0.4-1.3
			c0.1-0.1,0.2-0.1,0.2-0.2c0.4-0.1,0.7-0.3,1.1-0.4c-1.4-0.6-2.9-1.1-4.3-1.7c0-0.1,0-0.3,0.1-0.4c0.7-0.3,1.4-0.7,2-1
			c-0.7-0.4-1.5-0.8-2.3-1.2c-0.1-0.1-0.2-0.1-0.3-0.2c-0.9-0.6-1.7-1.3-1.7-2.5c0-1.6,0.9-2.2,3.2-2c-0.4,2.2,0.4,3.3,2.8,4.3
			c2,0.8,4,0.7,6.1,0.2c0.5-0.1,1-0.2,1.6-0.2c-0.3,1.6-1.6,1.5-2.5,1.7c-1.8,0.3-3.7,0.3-5.7,0.6c1.1,0.3,2.1,0.8,3.2,0.9
			c2,0.2,4.1,0.1,6-1c1.8-1,2.6-2.6,2.8-4.5c0.1-0.9,0.1-1.7,0.2-2.6c-3.5,0.9-7.2,0.8-11,0.7c-2.5-0.1-5-0.5-7.4-1
			c-1.2-0.2-2.1-1-2.6-2.2c-0.9-2.3-1.8-4.5-2.6-6.8c-0.2-0.5-0.3-1.4,0.6-1.5c0.8-0.2,1.7-0.6,2.3,0.3c0.1,0.2,0.3,0.4,0.5,0.4
			c2.1,0.6,4.1,1.2,6.2,1.6c2.2,0.4,4.5,0.7,6.7,1.1c0.9,0.1,1.9,0.1,2.8,0.3c3.1,0.4,5.6-1.2,8.3-2.2c0.2-0.1,0.2-0.5,0.4-1
			c-1.6,0.5-2.8,1-4.2,1.3c-1,0.2-2,0.3-3,0.4c-0.4,0-0.9-0.3-1.4-0.4c0.7-1.6,1.8-2.4,3-3.1c1.8-1.1,3.7-2,5.5-3.1
			c2.9-1.8,4.6-4.4,5.2-7.6c0.6-3,0.9-6.1,1-9.1c0-4.6,0.9-8.8,3.9-12.3c1.6-1.9,3.4-3.7,5.3-5.3c5.1-4.4,8.9-9.5,10.2-16.2
			c1.5-7.9-0.2-15.2-4.7-21.8c-3.7-5.5-9-9.1-15.2-11.4c-3.6-1.3-7.2-2-11.1-2.2c-6.7-0.4-13,1-19.1,3.6
			c-6.4,2.7-11.8,6.9-16.4,12.1c-2.8,3.1-5,6.6-6,10.7c-1.4,5.7-0.5,11.1,2.5,16.1c2,3.3,4.6,6.1,7.3,8.8c1.8,1.8,3.7,3.4,5.5,5.3
			c3.3,3.4,5.8,7.4,6.8,12.1c0.4,2.1,0.5,4.2,0.8,6.3c0.5,4,1,7.9,3.4,11.3c1.2,1.8,2.9,2.9,5.2,3.1c0.8,0.1,1.6,0,2.4,0
			c0.4,0,1,0.4,1,0.5c-0.1,0.5-0.3,1.1-0.7,1.3c-2.1,1.2-4.3,1.4-6.5,0.3c-4.4-2.2-7-5.8-7.9-10.6c-0.7-3.9-1.2-7.9-2-11.9
			c-0.6-3.2-2.2-6-4.5-8.3c-3.4-3.3-6.8-6.5-10.2-9.7c-4.1-3.9-6.6-8.6-7.7-14.1c-1.2-5.6-0.5-11,2-16.2c2.4-5,5.7-9.3,9.8-13
			c4.4-3.9,9.4-6.9,15-8.9c3-1.1,6.2-1.9,9.3-2.6c1.8-0.4,3.6-0.5,5.4-0.6c2-0.1,3.9-0.1,5.9,0c4.6,0.1,9,1.1,13.3,2.8
			c5.2,2.1,9.7,5.2,13.4,9.4c4.1,4.6,6.8,9.9,7.8,15.9c0.4,2.4,0.7,4.8,0.7,7.3c-0.1,4.1-1,8-2.6,11.8c-1.7,4.1-4.4,7.6-7.7,10.6
			c-1.7,1.5-3.5,2.9-5.2,4.5c-2.9,2.7-4.2,6-4.5,9.9c-0.3,3.4,0,6.9-1.2,10.1c-1.8,4.9-4.1,8.5-8.8,12.1c1.4,0.1,2.8,0.2,4.1,0.3
			c-0.1,0.1-0.1,0.4-0.2,0.4c-1.5,0.7-1.9,1.9-1.8,3.5c0.1,1.3-0.2,2.7-0.5,4.1c-0.1,0.5-0.7,1.1-1.2,1.3c-0.5,0.2-1.1,0.1-1.7-0.1
			c-0.1,0,0-0.8,0-1.3c0.2-1.5,0.4-3.1,0.7-4.9c-4.9,2.3-9.7,2.4-14.5,2c-3.1-0.2-6.1-1.2-9.1-1.9c-0.3-0.1-0.5-0.1-0.8-0.2
			c-0.1-0.1-0.2-0.2-0.3-0.3C65.2,120,65.2,120.1,65.3,120.2z"/>
		<path class="st1" d="M15.7,81.9c0.5-0.4,1-0.9,1.6-1.2c3.9-1.9,7.9-3.8,11.8-5.7c0.5-0.2,1.3-0.4,1.8-0.2c0.5,0.1,1,0.6,1.2,1.1
			c0.1,0.3-0.4,0.9-0.8,1.2c-1.4,0.7-2.8,1.3-4.2,2c-3,1.5-5.9,2.9-8.8,4.4c-0.8,0.4-1.9,0.1-2.6-0.8C15.7,82.3,15.7,82.1,15.7,81.9
			z"/>
		<path class="st2" d="M76.5,142.7c0.4,0,0.8,0,1.2,0C77.3,142.7,76.9,142.7,76.5,142.7z"/>
		<path class="st1" d="M83,74.7c-0.8,1.3-1.3,2.3-1.9,3.2C80.4,79,79.5,80,78,80.2c-1.8,0.2-3.2-1.2-3.9-2.9
			c-0.1-0.3-0.2-0.5-0.5-1.2c-1.6,1.9-2.9,3.6-4.2,5.3c-0.2,0.3-0.4,0.7-0.6,0.8c-0.3,0.2-1.1,0.4-1.1,0.3c-0.3-0.4-0.7-1.1-0.5-1.5
			c1.4-3.3,3.7-5.9,6.7-7.8c1-0.6,1.8-0.2,2,1c0.2,0.9,0.5,1.8,0.9,2.6c0.5,1.2,1.2,1.3,1.9,0.3c0.7-0.9,1.2-1.9,1.7-2.9
			c0.9-1.5,2.3-2.2,3.7-1.5c0.7,0.4,1.3,1.3,1.7,2.1c0.9,1.9,0.9,1.9,2.9,1.7c1.2-0.1,2.7,0.6,2.9,1.5c0.2,0.6,0.1,1.1-0.7,1.1
			c-0.9,0-1.8-0.1-2.8,0c-2.4,0.2-3.2-0.6-4.1-2.7C83.7,76.1,83.4,75.6,83,74.7z"/>
		<path class="st1" d="M82.8,111.8c-0.5-1.1-0.4-2.2-0.2-3.4c1.1-5.4,3.1-10.6,5-15.8C89,89,90.4,85.3,92.8,82
			c0.3-0.4,0.6-0.8,1-1.2c0.2-0.2,0.6-0.3,0.8-0.4c0.1,0.3,0.4,0.7,0.4,1c-0.3,1.2-0.6,2.5-1.1,3.7c-3.1,7.5-6.5,15-8.8,22.9
			c-0.4,1.4-1.2,2.6-1.8,3.9C83.1,111.9,83,111.9,82.8,111.8z"/>
		<path class="st3" d="M40.5,105.7c-0.5-1.1-1.1-1.9-1.3-2.8c-0.3-1.3-1.1-1.7-2.2-2.1c-1.5-0.5-3-1.1-4.4-1.7
			c-0.3-0.1-0.5-0.4-0.8-0.6c1.6-0.5,3.1-1,4.6-1.6c0.4-0.1,0.8-0.6,0.9-1c0.5-1.4,0.9-2.8,1.4-4.5c0.7,1.4,1.3,2.5,1.9,3.7
			c1.8-0.3,3.5-0.6,5.3-0.9c-0.4,1.3-0.9,2.5-1.2,3.7c-0.1,0.4,0,1,0.3,1.3c0.8,1.1,1.8,2.1,2.5,3.4c-1.3-0.3-2.7-0.6-4.1-0.8
			c-0.4-0.1-1,0.2-1.2,0.5C41.8,103.3,41.3,104.4,40.5,105.7z"/>
		<path class="st3" d="M131.9,26.7c-1.4-0.2-2.9-0.4-4.2-0.8c-0.6-0.2-0.8,0-1.1,0.5c-0.6,1-1.2,2-1.9,3.3c-0.5-1.2-0.9-2.2-1.4-3.1
			c-0.4-0.6-0.9-1.3-1.6-1.6c-1.9-0.9-3.8-1.5-5.9-2.4c1.6-0.5,3-1.1,4.5-1.5c0.9-0.2,1.3-0.7,1.5-1.5c0.3-1.3,0.7-2.5,1.2-4.1
			c0.7,1.4,1.3,2.5,1.9,3.7c1.6-0.3,3.3-0.5,5.3-0.9c-0.4,1.4-0.7,2.6-1.2,3.7c-0.3,0.6-0.1,1,0.3,1.5c0.9,0.9,1.8,1.9,2.6,2.9
			C131.9,26.6,131.9,26.7,131.9,26.7z"/>
		<path class="st1" d="M74.1,111.6c-0.4-1.2-0.9-2.3-1.2-3.5c-1-4.9-2.5-9.7-4.4-14.3c-1.2-2.7-2.7-5.3-4.1-8
			c-0.4-0.8-0.6-1.6-0.9-2.5c-0.1-0.3,0-0.7,0-1c0.4,0.1,0.9-0.1,1.1,0.2c0.9,1,2,1.9,2.7,3.1c3.6,6.2,6.1,12.8,7.2,19.8
			c0.3,2.1,0.9,4.2-0.1,6.2C74.4,111.5,74.3,111.5,74.1,111.6z"/>
		<path class="st4" d="M81.6,11.2c-0.4,2.1-0.8,4-1.2,5.9c-0.3,1.3-2.2,2.2-3.4,1.7c-0.2-0.1-0.5-0.7-0.4-0.9
			c1.5-4.2,1.2-8.4-0.4-12.5c-0.1-0.1-0.1-0.4-0.1-0.4c0.8-0.4,1.7-0.9,2.6-1.1c0.3-0.1,1.1,0.4,1.2,0.8
			C80.6,6.9,81.1,9.1,81.6,11.2z"/>
		<path class="st4" d="M138.6,84.6c-2.3-0.4-4.4-0.6-6.4-1.1c-2.5-0.6-4.9-1.3-7.3-2.2c-0.8-0.3-1.6-1-2.2-1.7
			c-0.2-0.2-0.2-1.1,0-1.4c0.8-1,2.5-1,3.4-0.1c2.1,2,4.8,2.7,7.5,3.2c2.2,0.4,4.4,0.6,6.6,1c0.3,0.1,0.6,0.3,0.9,0.5
			c-0.2,0.4-0.4,0.9-0.7,1.1C139.9,84.3,139.1,84.4,138.6,84.6z"/>
		<path class="st1" d="M120.3,8.6c-1.6,1.8-3.4,3.4-4.8,5.3c-1.2,1.6-2.1,3.4-3,5.1c-0.7,1.5-1.4,2-3.1,2c-1,0-1.3-0.4-0.9-1.2
			c1.2-2.2,2.3-4.6,3.8-6.6c1.4-1.9,3.3-3.6,5.1-5.2C118.6,7.1,119.8,7.4,120.3,8.6z"/>
		<path class="st4" d="M141.9,32.4c0.3,0.3,0.9,0.6,1,1c0.2,0.8-0.1,1.5-0.9,1.8c-1.3,0.5-2.6,1-3.9,1.6c-2.8,1.4-5.6,2.9-8.4,4.3
			c-0.4,0.2-1.2,0.3-1.6,0.1c-1-0.6-1.4-1.5-0.1-2.2c2.6-1.5,5.2-2.8,7.9-4.1c1.5-0.8,3.1-1.3,4.7-1.9
			C140.9,32.6,141.2,32.5,141.9,32.4z"/>
		<path class="st1" d="M32.1,30.6c4.5-0.2,8.3,1.3,11.8,3.7c0.4,0.3,0.7,0.8,1,1.2c-0.5,0.4-0.8,0.8-1.3,1c-1,0.5-1.9,0.3-2.8-0.4
			c-2.8-2.1-6-3.3-9.6-3.4c-0.6,0-1.1,0.1-1.7,0c-0.5-0.1-1.2-0.4-1.3-0.7c-0.2-0.9,0.6-1.3,1.3-1.4C30.3,30.5,31.3,30.6,32.1,30.6z
			"/>
		<path class="st4" d="M43.2,24.9c-0.2-2-1.1-3.2-3.5-3c2.7-1.4,1.9-3.8,2-6C41.9,16,42,16,42,16.1c1.2,1.5,2.4,2.8,4.5,1.9
			c-0.3,0.8-0.8,1.6-0.7,2.2c0.1,0.7,0.7,1.4,1.2,2.2c-0.4,0.1-0.8,0.3-1.1,0.3c-1.3-0.2-2.1,0.3-2.4,1.6
			C43.6,24.5,43.4,24.7,43.2,24.9z"/>
		<path class="st5" d="M114.2,103.4c1.2,1.9,2.6,3,4.7,2.3c-0.3,0.8-0.9,1.5-0.8,2.2c0.1,0.7,0.8,1.4,1.3,2.1
			c-1,0.1-1.9,0.3-2.8,0.4c-0.3,0.7-0.7,1.4-1.2,2.4c-0.2-1.1-0.4-2-0.6-2.9c-0.8-0.1-1.5-0.2-2.4-0.4
			C113.9,107.5,113.9,107.5,114.2,103.4z"/>
		<path class="st6" d="M139.5,66.8c-3.3-0.5-2.4-1.2-4.2,1.7c-0.4-2.9-2.7-3.1-4.9-3.9c1.2-0.4,2.3-0.5,3-1.1
			c0.6-0.6,0.7-1.7,1.1-2.8c0.4,0.7,0.7,1.3,1.1,2c0.8-0.1,1.7-0.3,2.8-0.5c-0.2,0.9-0.6,1.8-0.4,2.5
			C138.1,65.4,138.9,65.9,139.5,66.8z"/>
		<path class="st7" d="M65.3,120.2c0-0.1-0.1-0.2-0.1-0.4c0.1,0.1,0.2,0.2,0.3,0.3C65.4,120.2,65.4,120.2,65.3,120.2z"/>
		<path class="st8" d="M69.1,133.4c0.1,0.1,0.2,0.1,0.3,0.2C69.2,133.5,69.2,133.4,69.1,133.4z"/>
		<path class="st8" d="M72.7,138.2c-0.1,0.1-0.2,0.1-0.2,0.2C72.5,138.4,72.6,138.3,72.7,138.2z"/>
	</g>
</g>
<g id="Starters_xA0">
	
		<image style="overflow:visible;enable-background:new    ;" width="1017" height="401" id="Starters_xA0_Image" xlink:href="A634685D.png"  transform="matrix(0.24 0 0 0.24 117.9203 27.7603)">
	</image>
</g>
<g id="Junior_xA0">
	
		<image style="overflow:visible;enable-background:new    ;" width="1373" height="409" id="Junior_xA0_Image" xlink:href="A634685F.png"  transform="matrix(0.2398 0 0 0.2398 31.5201 25.6361)">
	</image>
</g>
</svg>
