<svg xmlns="http://www.w3.org/2000/svg" xmlns:xlink="http://www.w3.org/1999/xlink" width="500" zoomAndPan="magnify" viewBox="0 0 375 374.999991" height="500" preserveAspectRatio="xMidYMid meet" version="1.0"><defs><clipPath id="454113c068"><path d="M 2.402344 48.679688 L 372.902344 48.679688 L 372.902344 326 L 2.402344 326 Z M 2.402344 48.679688 " clip-rule="nonzero"/></clipPath></defs><g clip-path="url(#454113c068)"><path fill="#e4cabd" d="M 300.441406 55.964844 C 302.226562 52.242188 308.066406 56.371094 308.46875 50.863281 L 333.203125 49.164062 C 331.742188 54.023438 333.851562 57.097656 335.957031 60.015625 C 337.742188 62.363281 339.28125 64.953125 340.660156 67.625 C 343.253906 68.273438 346.5 71.753906 349.335938 66.976562 L 350.554688 67.222656 C 351.363281 72.402344 352.582031 77.585938 353.066406 82.769531 C 353.714844 89.488281 353.554688 96.289062 354.203125 103.09375 C 355.011719 111.433594 356.066406 119.773438 357.363281 128.03125 C 358.175781 132.730469 359.390625 137.34375 360.933594 141.878906 C 364.417969 153.214844 366.363281 165.039062 366.527344 176.859375 C 366.6875 185.199219 367.257812 193.621094 368.148438 201.960938 C 369.285156 212.8125 371.796875 223.503906 372.121094 234.351562 C 372.445312 243.664062 372.769531 253.21875 369.609375 262.449219 C 368.390625 266.015625 368.148438 270.0625 368.148438 273.867188 C 368.148438 276.945312 366.609375 277.917969 364.257812 278.402344 C 362.066406 278.890625 359.714844 278.96875 357.609375 279.617188 C 356.308594 280.023438 355.417969 281.316406 354.121094 281.964844 C 352.90625 282.695312 351.445312 283.019531 350.066406 282.9375 C 346.011719 282.453125 342.039062 281.398438 337.5 283.910156 L 342.203125 285.125 C 340.253906 289.253906 336.605469 290.550781 332.390625 291.359375 C 326.550781 292.574219 320.714844 294.113281 315.039062 295.972656 C 307.742188 298.242188 300.363281 300.347656 293.144531 303.101562 C 284.386719 306.5 275.144531 306.421875 266.0625 307.230469 C 249.277344 308.6875 232.492188 309.738281 215.789062 311.035156 C 205.574219 311.84375 195.277344 312.492188 185.058594 313.625 C 176.871094 314.597656 168.761719 316.300781 160.652344 317.511719 C 154.003906 318.484375 147.4375 319.457031 140.785156 320.105469 C 134.382812 320.671875 127.976562 320.914062 121.570312 321.15625 C 115.730469 321.320312 109.8125 321.078125 103.972656 321.480469 C 94.730469 322.210938 85.488281 323.34375 76.242188 324.394531 C 71.296875 324.964844 66.351562 326.179688 62.054688 322.292969 C 61.160156 321.644531 60.105469 321.320312 58.972656 321.480469 C 55.972656 322.128906 53.457031 321.96875 52.808594 318.726562 L 45.675781 322.695312 C 43.078125 319.050781 41.050781 316.054688 39.023438 313.058594 C 38.375 312.332031 37.972656 311.523438 37.726562 310.628906 C 37.402344 307.066406 36.105469 304.71875 31.484375 305.207031 C 32.539062 302.777344 33.429688 300.914062 34.324219 298.726562 C 32.050781 297.027344 28.972656 295.8125 27.671875 293.464844 C 24.996094 288.605469 21.511719 287.957031 16.566406 289.011719 C 14.941406 289.335938 12.914062 288.039062 11.050781 287.875 C 8.863281 287.632812 6.589844 287.796875 3.835938 287.796875 C 2.535156 275.8125 2.941406 263.097656 3.753906 250.464844 C 4.402344 240.34375 5.863281 230.304688 6.265625 220.183594 C 6.511719 214.675781 4.644531 209.007812 5.132812 203.5 C 6.023438 192.652344 7.726562 181.800781 9.265625 171.03125 C 11.050781 158.558594 13.160156 146.171875 14.941406 133.703125 C 15.1875 132 14.375 130.21875 13.96875 128.4375 C 13.402344 126.089844 12.347656 123.984375 14.78125 121.554688 C 17.617188 118.882812 17.457031 111.191406 15.265625 106.25 C 23.699219 102.445312 17.292969 96.777344 15.429688 91.191406 L 21.105469 92.890625 L 21.59375 92 L 14.292969 84.386719 C 16.402344 77.992188 23.539062 76.695312 28.078125 73.457031 C 31.484375 73.457031 34.484375 73.699219 37.484375 73.375 C 50.539062 72 62.703125 67.140625 75.269531 63.902344 C 80.785156 62.523438 86.378906 61.875 91.972656 60.90625 C 96.109375 60.175781 100.324219 59.527344 104.460938 58.800781 C 110.949219 57.667969 112.246094 58.234375 114.273438 63.171875 C 114.515625 63.171875 114.921875 63.171875 115 63.011719 C 116.785156 60.582031 117.515625 57.097656 122.21875 58.394531 C 124.164062 58.960938 126.679688 57.261719 129.03125 56.855469 C 131.382812 56.453125 133.8125 56.371094 135.921875 56.207031 C 136.488281 57.667969 137.058594 59.042969 137.625 60.417969 C 139.082031 59.527344 140.949219 58.960938 142.003906 57.746094 C 144.597656 54.671875 150.839844 54.347656 155.867188 55.804688 C 159.273438 56.773438 163.328125 60.09375 167.140625 55.5625 C 168.03125 54.507812 170.625 54.507812 172.492188 54.507812 C 178.652344 54.507812 184.734375 54.75 190.816406 54.671875 C 193.003906 54.671875 195.195312 53.78125 197.304688 53.78125 C 198.519531 53.78125 199.734375 54.75 200.871094 55.316406 C 202.167969 50.785156 206.871094 53.617188 210.113281 52.808594 C 212.058594 52.320312 214.167969 52.726562 216.683594 52.726562 C 217.65625 54.183594 216.195312 59.449219 221.871094 56.613281 L 219.113281 53.457031 C 224.0625 52.644531 228.441406 51.511719 232.898438 51.1875 C 245.710938 50.378906 258.601562 49.972656 271.414062 49.40625 C 275.0625 49.246094 278.792969 48.679688 282.441406 49.082031 C 285.035156 49.40625 287.46875 51.105469 289.984375 51.917969 C 291.363281 52.320312 292.820312 52.402344 294.28125 52.160156 C 298.089844 51.753906 298.089844 51.59375 300.441406 55.964844 Z M 284.226562 122.769531 L 280.007812 126.332031 L 285.441406 131.597656 L 286.984375 130.625 C 286.171875 128.195312 285.28125 125.765625 284.226562 122.769531 Z M 126.191406 60.175781 C 126.515625 60.90625 127.003906 62.605469 127.246094 62.523438 C 129.597656 62.199219 131.949219 61.554688 134.300781 60.984375 L 133.976562 59.285156 Z M 126.191406 60.175781 " fill-opacity="1" fill-rule="nonzero"/></g></svg>